<?xml version="1.0" encoding="utf-8"?>
<!-- Generator: Adobe Illustrator 19.1.0, SVG Export Plug-In . SVG Version: 6.00 Build 0)  -->
<!DOCTYPE svg PUBLIC "-//W3C//DTD SVG 1.1//EN" "http://www.w3.org/Graphics/SVG/1.1/DTD/svg11.dtd">
<svg version="1.1" id="Layer_1" xmlns="http://www.w3.org/2000/svg" xmlns:xlink="http://www.w3.org/1999/xlink" x="0px" y="0px"
	 viewBox="0 0 250 250" enable-background="new 0 0 250 250" xml:space="preserve">
<rect x="80.54919" y="66.31541" transform="matrix(-0.70709 -0.70713 0.70713 -0.70709 129.06987 302.89856)" width="93.44102" height="116.8032"/>
<path d="M207.35263,116.67101L105.11435,218.90567c-3.82095,3.82095-9.99435,3.89311-13.74314,0.14433l-58.43269-58.42188
	c-3.74879-3.74879-3.69106-9.90776,0.14072-13.73953L149.66679,30.30103c3.81735-3.82094,9.99075-3.88951,13.73953-0.14072
	L221.83902,88.593c3.7524,3.74879,3.69466,9.90777-0.14072,13.74315L207.35263,116.67101z M249.83043,90.76507L250,68.73419
	c0-0.81543-0.33914-1.62003-0.93086-2.22618c-0.60616-0.60616-1.40715-0.94532-2.2262-0.93088l-18.85577,0.15514l0.15515-18.85578
	c0-0.81903-0.33917-1.62003-0.93086-2.22618c-0.60616-0.60615-1.41075-0.9453-2.2262-0.93088l-18.85938,0.15514l0.15514-18.85938
	c0-0.81542-0.33916-1.62001-0.93088-2.22617c-0.60616-0.60615-1.40714-0.94532-2.22618-0.93089l-18.85939,0.15515l0.15517-18.85577
	c0-0.81902-0.33556-1.62362-0.92729-2.22977c-0.60616-0.60615-1.41075-0.94171-2.22977-0.92729l-22.01285,0.1696
	c-0.73244,0.01082-1.41075,0.28141-1.91589,0.78654L0.96019,157.33035c-0.49431,0.49429-0.77574,1.18344-0.79017,1.91588
	L0.00044,181.2771c-0.01443,0.81543,0.32473,1.62004,0.93088,2.22618c0.60616,0.60616,1.41076,0.94531,2.22618,0.93089
	l18.85938-0.15515l-0.15515,18.85577c0,0.81903,0.33555,1.62363,0.93088,2.22978c0.60255,0.60617,1.40714,0.94171,2.22618,0.92728
	l18.84134-0.15515l-0.15515,18.85939c-0.01082,0.81903,0.33916,1.62003,0.93089,2.22618
	c0.60615,0.60616,1.41076,0.94531,2.22618,0.93088l18.85938-0.15515l-0.15514,18.84496
	c-0.01443,0.81543,0.33916,1.62003,0.93088,2.22618c0.60616,0.60616,1.40716,0.94531,2.22618,0.93088l22.02727-0.16957
	c0.73605,0,1.41076-0.28143,1.91949-0.79018L249.04387,92.66652C249.549,92.17582,249.83043,91.48306,249.83043,90.76507z"/>
<path d="M91.25936,201.83949c-2.26948-2.26947-2.39576-5.80537-0.28143-7.91971c2.11433-2.11432,5.65024-1.98804,7.91972,0.28143
	s2.39576,5.80537,0.28143,7.91971C97.06474,204.22083,93.52884,204.09454,91.25936,201.83949z M70.20266,180.78281
	c-2.26947-2.26947-2.39575-5.80539-0.28143-7.91971c2.11433-2.11433,5.65024-1.98805,7.91972,0.28142
	c2.26947,2.26947,2.39575,5.80539,0.28143,7.91971C76.02248,183.17856,72.47214,183.05228,70.20266,180.78281z M50.4557,161.03584
	c-2.26587-2.26587-2.39576-5.80539-0.28143-7.91972c2.11433-2.11432,5.65385-1.98804,7.92332,0.28143
	s2.39576,5.80899,0.28143,7.92332C56.26469,163.4352,52.72517,163.30531,50.4557,161.03584z M50.15983,135.75409l-14.10756,14.10756
	c-2.29473,2.29472-2.44988,5.87755-0.33555,7.99187l58.4327,58.43269c2.11432,2.11433,5.69353,1.95918,7.99187-0.33916
	l14.10756-14.10756L50.15983,135.75409z"/>
<path d="M196.41656,96.37562c-2.26947-2.26949-2.39575-5.809-0.28143-7.92333c2.11072-2.11433,5.65024-1.98804,7.91971,0.28144
	c2.26949,2.26946,2.39577,5.80899,0.28143,7.92332C202.22195,98.75694,198.68604,98.63066,196.41656,96.37562z M175.3743,75.31891
	c-2.26947-2.26947-2.39575-5.80899-0.28503-7.92332c2.11433-2.11433,5.65384-1.98444,7.92331,0.28143
	c2.26949,2.26949,2.39577,5.809,0.28145,7.92333C181.17969,77.70023,177.62933,77.58839,175.3743,75.31891z M155.62732,55.57195
	c-2.26947-2.26947-2.39575-5.80539-0.28142-7.91972c2.11433-2.11432,5.65024-1.98804,7.91971,0.28143
	c2.26949,2.26948,2.39577,5.80539,0.28143,7.91971C161.43271,57.95327,157.88237,57.82699,155.62732,55.57195z M219.04999,91.35678
	l-58.41826-58.41825c-2.11433-2.11434-5.69354-1.95918-7.99188,0.33554l-14.3493,14.3493l66.0746,66.07098l14.34569-14.3457
	C221.00917,97.05032,221.16432,93.47112,219.04999,91.35678z"/>
</svg>
