<?xml version="1.0" encoding="utf-8"?>
<!-- Generator: Adobe Illustrator 19.1.0, SVG Export Plug-In . SVG Version: 6.00 Build 0)  -->
<!DOCTYPE svg PUBLIC "-//W3C//DTD SVG 1.1//EN" "http://www.w3.org/Graphics/SVG/1.1/DTD/svg11.dtd">
<svg version="1.1" id="Layer_1" xmlns="http://www.w3.org/2000/svg" xmlns:xlink="http://www.w3.org/1999/xlink" x="0px" y="0px"
	 viewBox="0 0 250 250" enable-background="new 0 0 250 250" xml:space="preserve">
<path d="M204.06383,101.41204c4.27654-9.27637-2.49794-43.5361-7.84163-51.38169
	c5.00378-1.79045,15.34731-12.84542-31.40211-37.11339C118.07063-11.33916,61.32943-1.35135,28.86016,42.18872
	s17.47768,103.47482,25.15331,120.96436c7.67168,17.47768,7.31596,25.52089,7.31596,25.52089L47.4959,250h111.07143
	c1.07901-2.96432,3.53346-22.57237,5.16978-32.39023c7.48987,1.0632,20.56453,1.79045,34.47711,2.50189
	c13.91258,0.70749,9.04713-16.41447,11.90474-26.26395c-23.5921-1.00392-31.71437-6.88515-38.90781-18.38675
	c7.48593,7.16182,32.97916,3.27263,36.18854,2.9169c3.21333-0.35571,2.71927-5.24884-0.13834-10.25262
	c-2.8576-4.99983,8.92461-14.26434,16.41052-18.18517C231.17755,146.01532,201.21016,112.83855,204.06383,101.41204z"/>
<path d="M148.121,97.941l-2.961,2.961c4.72699,4.727,7.332,11.012,7.332,17.696c0,6.683-2.60501,12.96799-7.332,17.695l2.961,2.961
	c5.51999-5.51599,8.55899-12.856,8.55899-20.656C156.67599,110.793,153.63699,103.457,148.121,97.941z"/>
<path d="M143.22701,102.47701l-2.83601,2.83499c7.32401,7.325,7.32401,19.243,0,26.571l2.83601,2.836
	c4.304-4.30499,6.675-10.03099,6.675-16.12099S147.53101,106.781,143.22701,102.47701z"/>
</svg>
