<?xml version="1.0" encoding="utf-8"?>
<!-- Generator: Adobe Illustrator 19.1.0, SVG Export Plug-In . SVG Version: 6.00 Build 0)  -->
<!DOCTYPE svg PUBLIC "-//W3C//DTD SVG 1.1//EN" "http://www.w3.org/Graphics/SVG/1.1/DTD/svg11.dtd">
<svg version="1.1" id="Layer_1" xmlns="http://www.w3.org/2000/svg" xmlns:xlink="http://www.w3.org/1999/xlink" x="0px" y="0px"
	 viewBox="0 0 250 250" enable-background="new 0 0 250 250" xml:space="preserve">
<path d="M222.75876,173.33131h-56.90932v-47.56319h56.90932V173.33131z M222.75876,234.33322h-56.90932v-47.54756h56.90932
	V234.33322z M154.59578,173.33131H97.70601v-47.56319h56.88977V173.33131z M154.59578,234.33322H97.70601v-47.54756h56.88977
	V234.33322z M86.45235,173.33131H29.54303v-47.56319h56.90931V173.33131z M86.45235,234.33322H29.54303v-47.54756h56.90931
	V234.33322z M12.65669,109.40166v119.6624C12.65669,240.6226,21.909,250,33.33073,250h186.26575
	c11.40608,0,20.68965-9.3774,20.68965-20.93594v-119.6624H12.65669z"/>
<path d="M176.72002,78.11501c-11.72662,0.01564-21.29947-9.49857-21.31509-21.25256
	c-0.02736-7.86466,4.26067-14.72082,10.61259-18.43035l0.03127,18.41471c0.01564,5.87896,4.7962,10.62433,10.64388,10.60869
	c5.89067,0,10.62433-4.77665,10.62433-10.65559l-0.02737-18.41472c6.3793,3.66262,10.63995,10.51879,10.67123,18.38345
	C197.97649,68.54218,188.47791,78.08375,176.72002,78.11501z M70.83249,78.11501
	c-11.72663,0.01564-21.28774-9.49857-21.31901-21.25256c-0.01173-7.86466,4.26067-14.72082,10.59696-18.43035l0.0469,18.41471
	c0,5.87896,4.79619,10.62433,10.64387,10.60869c5.87894,0,10.63995-4.77665,10.62823-10.65559l-0.0469-18.41472
	c6.35192,3.66262,10.64386,10.51879,10.67123,18.38345C92.08504,68.54218,82.60211,78.08375,70.83249,78.11501z M239.62946,95.45869
	V49.36523c0-11.56245-9.2523-20.93593-20.67404-20.93593h-31.68143l-0.06255-17.80493
	c-0.01564-5.89069-4.79619-10.63996-10.67123-10.62433c-5.86331,0-10.61259,4.77665-10.61259,10.65559l0.05864,17.77367v0.0469
	l-84.61935-0.0469l-0.06255-17.80493C81.28873,4.73368,76.51208-0.01559,70.64877,0.00004
	c-5.87894,0-10.62823,4.77665-10.62823,10.65559l0.07818,17.80494l-27.42467-0.04691C21.23667,28.41366,12,37.79105,12,49.34959
	v48.69286h227.61383v-2.58376H239.62946z"/>
</svg>
